<?xml version="1.0" encoding="utf-8"?>
<!-- Generator: Adobe Illustrator 13.0.0, SVG Export Plug-In . SVG Version: 6.00 Build 14948)  -->
<!DOCTYPE svg PUBLIC "-//W3C//DTD SVG 1.0//EN" "http://www.w3.org/TR/2001/REC-SVG-20010904/DTD/svg10.dtd">
<svg version="1.0"
	 id="svg5294" inkscape:output_extension="org.inkscape.output.svg.inkscape" xmlns:dc="http://purl.org/dc/elements/1.1/" xmlns:cc="http://creativecommons.org/ns#" xmlns:sodipodi="http://sodipodi.sourceforge.net/DTD/sodipodi-0.dtd" xmlns:inkscape="http://www.inkscape.org/namespaces/inkscape" xmlns:rdf="http://www.w3.org/1999/02/22-rdf-syntax-ns#" xmlns:svg="http://www.w3.org/2000/svg" sodipodi:version="0.32" inkscape:version="0.46" sodipodi:docname="pictograms-nps-misc-point_of_interest.svg"
	 xmlns="http://www.w3.org/2000/svg" xmlns:xlink="http://www.w3.org/1999/xlink" x="0px" y="0px" width="256px" height="256px"
	 viewBox="0 0 256 256" enable-background="new 0 0 256 256" xml:space="preserve">
<defs>
	
	
		<inkscape:perspective  id="perspective5302" inkscape:vp_z="744.09448 : 526.18109 : 1" inkscape:vp_x="0 : 526.18109 : 1" inkscape:vp_y="0 : 1000 : 0" sodipodi:type="inkscape:persp3d" inkscape:persp3d-origin="372.04724 : 350.78739 : 1">
		</inkscape:perspective>
</defs>
<sodipodi:namedview  id="base" showgrid="false" objecttolerance="10" guidetolerance="10" inkscape:zoom="0.98994949" pagecolor="#ffffff" gridtolerance="10000" borderopacity="1.0" inkscape:cy="62.857143" inkscape:cx="112.80911" bordercolor="#666666" inkscape:window-y="309" inkscape:window-x="1" inkscape:window-height="674" inkscape:window-width="725" inkscape:current-layer="layer1" inkscape:document-units="px" inkscape:pageshadow="2" inkscape:pageopacity="0.0">
	</sodipodi:namedview>
<g id="layer1" inkscape:label="Layer 1" inkscape:groupmode="layer">
	<g id="g6668" transform="matrix(25.903066,0,0,-25.903066,225.38258,256)">
		<path id="path6670" fill="#231F20" d="M0,0c0.652,0,1.182,0.527,1.182,1.18v7.521c0,0.653-0.53,1.182-1.182,1.182h-7.521
			c-0.653,0-1.18-0.529-1.18-1.182V1.18c0-0.653,0.527-1.18,1.18-1.18H0z"/>
	</g>
	<g id="g6672" transform="matrix(25.903066,0,0,-25.903066,30.555049,5.1909744)">
		<path id="path6674" fill="#FFFFFF" d="M0,0c-0.54,0-0.979-0.44-0.979-0.981v-7.522c0-0.54,0.439-0.979,0.979-0.979h7.521
			c0.542,0,0.982,0.439,0.982,0.979v7.522C8.503-0.44,8.063,0,7.521,0H0z"/>
	</g>
	<g id="g6676" transform="matrix(25.903066,0,0,-25.903066,131.48396,144.69701)">
		<path id="path6678" fill="#231F20" d="M0,0c-0.143,0.141-0.143,0.371,0,0.512c0.141,0.142,0.371,0.142,0.512,0l0.724-0.723v1.024
			c0,0.199,0.162,0.363,0.364,0.363c0.199,0,0.363-0.164,0.363-0.363v-1.024l0.723,0.723c0.142,0.142,0.371,0.142,0.513,0
			c0.143-0.141,0.143-0.371,0-0.512L2.477-0.723L3.5-0.725c0.199,0,0.361-0.162,0.361-0.363c0-0.199-0.162-0.363-0.361-0.363H2.477
			l0.722-0.723c0.143-0.142,0.143-0.371,0-0.514c-0.142-0.14-0.371-0.14-0.513,0L1.965-1.965L1.963-2.986
			c0-0.202-0.164-0.364-0.363-0.364c-0.202,0-0.364,0.162-0.364,0.364v1.023L0.512-2.688c-0.141-0.14-0.371-0.14-0.512,0
			c-0.143,0.143-0.143,0.372,0,0.514l0.723,0.723h-1.024c-0.199,0-0.363,0.164-0.363,0.363c0,0.201,0.164,0.363,0.363,0.363h1.024
			L0,0z"/>
	</g>
	<g id="g6680" transform="matrix(25.903066,0,0,-25.903066,120.96201,49.889512)">
		<path id="path6682" fill="#231F20" d="M0,0c0,0.199-0.162,0.361-0.363,0.361S-0.727,0.199-0.727,0v-1.502L-2.85,0.619
			c-0.14,0.143-0.371,0.143-0.511,0c-0.143-0.14-0.143-0.371,0-0.512l2.121-2.123h-1.502c-0.199,0-0.362-0.162-0.362-0.363
			c0-0.199,0.163-0.363,0.362-0.363l2.377,0.002c0.094,0,0.185,0.035,0.258,0.105c0.07,0.071,0.105,0.164,0.105,0.256L0,0z"/>
	</g>
</g>
</svg>
