<?xml version="1.0" encoding="utf-8"?>
<!-- Generator: Adobe Illustrator 13.0.0, SVG Export Plug-In . SVG Version: 6.00 Build 14948)  -->
<!DOCTYPE svg PUBLIC "-//W3C//DTD SVG 1.1//EN" "http://www.w3.org/Graphics/SVG/1.1/DTD/svg11.dtd">
<svg version="1.1" id="Layer_1" xmlns="http://www.w3.org/2000/svg" xmlns:xlink="http://www.w3.org/1999/xlink" x="0px" y="0px"
	 width="123.547px" height="123.539px" viewBox="-0.258 -0.548 123.547 123.539"
	 enable-background="new -0.258 -0.548 123.547 123.539" xml:space="preserve">
<g>
	<path fill="#231F20" d="M109.09,122.762c8.148,0,14.758-6.594,14.758-14.742V13.988c0-8.148-6.609-14.766-14.758-14.766H15.067
		c-8.148,0-14.766,6.617-14.766,14.766v94.032c0,8.147,6.617,14.741,14.766,14.741L109.09,122.762L109.09,122.762z"/>
	<path fill="#FFFFFF" d="M15.067,1.723c-6.766,0-12.266,5.508-12.266,12.266v94.03c0,6.734,5.5,12.228,12.266,12.228h94.023
		c6.75,0,12.25-5.492,12.25-12.228V13.988c0-6.758-5.5-12.266-12.25-12.266L15.067,1.723L15.067,1.723z"/>
	<path fill="#231F20" d="M19.465,85.934h-9.062v17.844c0,5.47,4.914,9.931,10.953,9.931h79.335c6.039,0,10.961-4.461,10.961-9.931
		V85.934h-9.069v15.953c0,2-1.797,3.625-4.008,3.625h-75.11c-2.219,0-4-1.625-4-3.625V85.934z"/>
	<polygon fill="#231F20" points="91.52,97.863 91.52,83.801 30.45,63.402 30.45,77.473 	"/>
	<path fill="#231F20" d="M44.536,63.418c-2.102-2.367-16.062-18.508-1.977-32.469c11.742-11.648,13.453-21.43,9.5-26.172
		c0,0,29.882,12.281,12.304,40.766c-3.007,4.836-10.522,10.547-6.593,22.32L44.536,63.418z"/>
	<path fill="#231F20" d="M62.887,67.285c-0.641-2.391-3.508-7.594,5.234-17.945c4.672-5.516,6.43-13.695,6.852-16.773
		c0,0,15.478,8.875,0.078,30.585L62.887,67.285z"/>
	<polygon fill="#231F20" points="66.176,70.613 91.52,62.152 91.52,76.215 87.223,77.629 	"/>
	<polygon fill="#231F20" points="55.801,90.66 30.45,99.105 30.45,85.043 34.762,83.637 	"/>
</g>
</svg>
