<?xml version="1.0" encoding="utf-8"?>
<!-- Generator: Adobe Illustrator 13.0.0, SVG Export Plug-In . SVG Version: 6.00 Build 14948)  -->
<!DOCTYPE svg PUBLIC "-//W3C//DTD SVG 1.0//EN" "http://www.w3.org/TR/2001/REC-SVG-20010904/DTD/svg10.dtd">
<svg version="1.0"
	 id="svg8302" inkscape:output_extension="org.inkscape.output.svg.inkscape" xmlns:dc="http://purl.org/dc/elements/1.1/" xmlns:cc="http://creativecommons.org/ns#" xmlns:sodipodi="http://sodipodi.sourceforge.net/DTD/sodipodi-0.dtd" xmlns:inkscape="http://www.inkscape.org/namespaces/inkscape" xmlns:rdf="http://www.w3.org/1999/02/22-rdf-syntax-ns#" xmlns:svg="http://www.w3.org/2000/svg" sodipodi:version="0.32" inkscape:version="0.46" sodipodi:docname="pictograms-nps-misc-souvenir_shop.svg"
	 xmlns="http://www.w3.org/2000/svg" xmlns:xlink="http://www.w3.org/1999/xlink" x="0px" y="0px" width="256px" height="256px"
	 viewBox="0 0 256 256" enable-background="new 0 0 256 256" xml:space="preserve">
<defs>
	
	
		<inkscape:perspective  id="perspective8310" inkscape:vp_z="744.09448 : 526.18109 : 1" inkscape:vp_x="0 : 526.18109 : 1" inkscape:vp_y="0 : 1000 : 0" sodipodi:type="inkscape:persp3d" inkscape:persp3d-origin="372.04724 : 350.78739 : 1">
		</inkscape:perspective>
</defs>
<sodipodi:namedview  id="base" showgrid="false" objecttolerance="10" guidetolerance="10" inkscape:zoom="0.7" pagecolor="#ffffff" gridtolerance="10000" borderopacity="1.0" inkscape:cy="136.73676" inkscape:cx="61.634556" bordercolor="#666666" inkscape:window-y="198" inkscape:window-x="0" inkscape:window-height="674" inkscape:window-width="738" inkscape:current-layer="layer1" inkscape:document-units="px" inkscape:pageshadow="2" inkscape:pageopacity="0.0">
	</sodipodi:namedview>
<g id="layer1" inkscape:label="Layer 1" inkscape:groupmode="layer">
	<g id="g2518" transform="matrix(25.897825,0,0,-25.897825,30.598384,5.184953)">
		<path id="path2520" fill="#FAFAFA" d="M0,0c-0.541,0-0.98-0.44-0.98-0.981v-7.522c0-0.541,0.439-0.981,0.98-0.981h7.521
			c0.54,0,0.979,0.44,0.979,0.981v7.522C8.5-0.44,8.061,0,7.521,0H0z"/>
	</g>
	<g id="g2522" transform="matrix(25.897825,0,0,-25.897825,225.38877,1.278e-6)">
		<path id="path2524" fill="#FAFAFA" d="M0,0h-7.521c-0.653,0-1.182-0.529-1.182-1.182v-7.521c0-0.652,0.529-1.182,1.182-1.182H0
			c0.652,0,1.18,0.53,1.18,1.182v7.521C1.18-0.529,0.652,0,0,0 M0.979-8.703c0-0.541-0.44-0.982-0.979-0.982h-7.521
			c-0.542,0-0.981,0.441-0.981,0.982v7.521c0,0.541,0.439,0.982,0.981,0.982H0c0.539,0,0.979-0.441,0.979-0.982V-8.703z"/>
	</g>
	<g id="g2526" transform="matrix(25.897825,0,0,-25.897825,181.8624,68.513007)">
		<path id="path2528" fill="#F24E4F" d="M0,0h-1.082l0.871,0.351c0.093,0.038,0.138,0.144,0.101,0.236
			C-0.147,0.68-0.254,0.726-0.347,0.688c0,0-0.493-0.198-0.979-0.395c0.395,0.393,0.801,0.794,0.801,0.794
			c0.035,0.036,0.053,0.083,0.053,0.13c0,0.046-0.017,0.093-0.053,0.128c-0.071,0.071-0.186,0.072-0.257,0.001l-1.127-1.119
			l0.005,1.59c0.001,0.1-0.081,0.182-0.181,0.182h-0.001c-0.101,0-0.181-0.081-0.182-0.181c0,0-0.003-1.051-0.005-1.59
			c-0.363,0.365-1.011,1.019-1.011,1.019c-0.07,0.07-0.186,0.071-0.257,0c-0.071-0.07-0.071-0.185-0.001-0.257l0.704-0.709
			l-1.013,0.404C-3.944,0.722-4.05,0.676-4.087,0.583C-4.124,0.49-4.079,0.384-3.985,0.347L-3.114,0h-1.045
			C-4.31,0-4.432-0.122-4.432-0.272v-5.799c0-0.15,0.122-0.272,0.273-0.272H0c0.151,0,0.272,0.122,0.272,0.272v5.799
			C0.272-0.122,0.151,0,0,0 M-0.272-2.426h-1.632v1.881h1.632V-2.426z M-2.268-2.426h-1.619v1.881h1.619V-2.426z M-3.887-2.79h1.619
			v-3.008h-1.619V-2.79z M-1.904-2.79h1.632v-3.008h-1.632V-2.79z"/>
	</g>
</g>
</svg>
