<?xml version="1.0" encoding="utf-8"?>
<!-- Generator: Adobe Illustrator 13.0.0, SVG Export Plug-In . SVG Version: 6.00 Build 14948)  -->
<!DOCTYPE svg PUBLIC "-//W3C//DTD SVG 1.0//EN" "http://www.w3.org/TR/2001/REC-SVG-20010904/DTD/svg10.dtd">
<svg version="1.0"
	 id="svg8302" xmlns:dc="http://purl.org/dc/elements/1.1/" xmlns:cc="http://creativecommons.org/ns#" xmlns:rdf="http://www.w3.org/1999/02/22-rdf-syntax-ns#" xmlns:svg="http://www.w3.org/2000/svg" xmlns:sodipodi="http://sodipodi.sourceforge.net/DTD/sodipodi-0.dtd" xmlns:inkscape="http://www.inkscape.org/namespaces/inkscape" sodipodi:version="0.32" inkscape:version="0.46" sodipodi:docname="pictograms-nps-winter-snowboarding.svg" inkscape:output_extension="org.inkscape.output.svg.inkscape"
	 xmlns="http://www.w3.org/2000/svg" xmlns:xlink="http://www.w3.org/1999/xlink" x="0px" y="0px" width="256px" height="256px"
	 viewBox="0 0 256 256" enable-background="new 0 0 256 256" xml:space="preserve">
<defs>
	
	
		<inkscape:perspective  id="perspective8310" inkscape:vp_x="0 : 526.18109 : 1" sodipodi:type="inkscape:persp3d" inkscape:vp_y="0 : 1000 : 0" inkscape:vp_z="744.09448 : 526.18109 : 1" inkscape:persp3d-origin="372.04724 : 350.78739 : 1">
		</inkscape:perspective>
</defs>
<sodipodi:namedview  id="base" inkscape:zoom="0.7" showgrid="false" bordercolor="#666666" objecttolerance="10" borderopacity="1.0" guidetolerance="10" pagecolor="#ffffff" gridtolerance="10000" inkscape:cx="61.634556" inkscape:cy="136.73676" inkscape:window-y="198" inkscape:window-x="0" inkscape:window-height="674" inkscape:window-width="738" inkscape:current-layer="layer1" inkscape:document-units="px" inkscape:pageshadow="2" inkscape:pageopacity="0.0">
	</sodipodi:namedview>
<g id="layer1" inkscape:label="Layer 1" inkscape:groupmode="layer">
	<g id="g7874" transform="matrix(25.882115,0,0,-25.882115,225.32969,256)">
		<path id="path7876" fill="#FAFAFA" d="M0,0c0.654,0,1.184,0.529,1.184,1.182v7.527c0,0.652-0.53,1.182-1.184,1.182h-7.524
			c-0.653,0-1.182-0.53-1.182-1.182V1.182C-8.706,0.529-8.177,0-7.524,0H0z"/>
	</g>
	<g id="g7882" transform="matrix(25.882115,0,0,-25.882115,182.91636,64.260529)">
		<path id="path7884" fill="#F24E4F" d="M0,0c0.365,0,0.662,0.297,0.662,0.662S0.365,1.324,0,1.324s-0.662-0.297-0.662-0.662
			S-0.365,0,0,0"/>
	</g>
	<g id="g7886" transform="matrix(25.882115,0,0,-25.882115,141.01032,110.4131)">
		<path id="path7888" fill="#F24E4F" d="M0,0l1.406,0.693L2.713-0.51C2.771-0.566,2.85-0.602,2.938-0.602
			C3.113-0.6,3.254-0.457,3.252-0.281c0,0.093-0.043,0.177-0.107,0.234L1.279,1.668C1.217,1.729,1.145,1.777,1.064,1.813
			L-0.389,2.33l-0.66,0.957C-1.1,3.355-1.178,3.404-1.27,3.416c-0.173,0.02-0.33-0.105-0.351-0.279
			c-0.008-0.074,0.01-0.145,0.047-0.203L-0.9,1.959c0.031-0.041,0.07-0.072,0.117-0.094l0.781-0.308L-1.287,0.9
			c-0.178-0.103-0.307-0.281-0.342-0.492l0.008-1.174l-1.187-0.535c-0.134-0.062-0.23-0.197-0.236-0.355
			c-0.01-0.227,0.166-0.418,0.393-0.428c0.07-0.002,0.138,0.014,0.197,0.043L-1-1.385c0.104,0.057,0.182,0.156,0.207,0.276
			l-0.004,0.73l1.01-0.9L0.027-2.82c0-0.008-0.002-0.018-0.002-0.028C0.016-3.074,0.191-3.266,0.418-3.275
			c0.213-0.01,0.396,0.146,0.424,0.353l0.217,1.756C1.061-1.158,1.061-1.15,1.061-1.143C1.066-1.02,1.018-0.906,0.934-0.828L0,0z"/>
	</g>
	<g id="g7890" transform="matrix(25.882115,0,0,-25.882115,27.346422,139.78185)">
		<path id="path7892" fill="#2358BE" d="M0,0c-0.218-0.073-0.335-0.31-0.262-0.527c0.121-0.361,0.395-0.645,0.748-0.78L6.043-3.42
			c0.355-0.136,0.748-0.105,1.075,0.083C7.317-3.223,7.386-2.969,7.271-2.77c-0.114,0.2-0.368,0.268-0.567,0.154
			C6.594-2.68,6.46-2.689,6.339-2.643c-0.001,0-5.557,2.114-5.557,2.114c-0.12,0.046-0.214,0.143-0.255,0.267
			C0.454-0.044,0.218,0.073,0,0"/>
	</g>
</g>
</svg>
