<?xml version="1.0" encoding="utf-8"?>
<!-- Generator: Adobe Illustrator 13.0.0, SVG Export Plug-In . SVG Version: 6.00 Build 14948)  -->
<!DOCTYPE svg PUBLIC "-//W3C//DTD SVG 1.0//EN" "http://www.w3.org/TR/2001/REC-SVG-20010904/DTD/svg10.dtd">
<svg version="1.0"
	 id="svg5294" inkscape:output_extension="org.inkscape.output.svg.inkscape" xmlns:dc="http://purl.org/dc/elements/1.1/" xmlns:cc="http://creativecommons.org/ns#" xmlns:sodipodi="http://sodipodi.sourceforge.net/DTD/sodipodi-0.dtd" xmlns:inkscape="http://www.inkscape.org/namespaces/inkscape" xmlns:rdf="http://www.w3.org/1999/02/22-rdf-syntax-ns#" xmlns:svg="http://www.w3.org/2000/svg" sodipodi:version="0.32" inkscape:version="0.46" sodipodi:docname="pictograms-nps-water-surfing.svg"
	 xmlns="http://www.w3.org/2000/svg" xmlns:xlink="http://www.w3.org/1999/xlink" x="0px" y="0px" width="256px" height="256px"
	 viewBox="0 0 256 256" enable-background="new 0 0 256 256" xml:space="preserve">
<defs>
	
	
		<inkscape:perspective  id="perspective5302" inkscape:vp_z="744.09448 : 526.18109 : 1" inkscape:vp_x="0 : 526.18109 : 1" inkscape:vp_y="0 : 1000 : 0" sodipodi:type="inkscape:persp3d" inkscape:persp3d-origin="372.04724 : 350.78739 : 1">
		</inkscape:perspective>
</defs>
<sodipodi:namedview  id="base" showgrid="false" objecttolerance="10" guidetolerance="10" inkscape:zoom="1.4" pagecolor="#ffffff" gridtolerance="10000" borderopacity="1.0" inkscape:cy="109.97938" inkscape:cx="124.57192" bordercolor="#666666" inkscape:window-y="309" inkscape:window-x="0" inkscape:window-height="674" inkscape:window-width="747" inkscape:current-layer="layer1" inkscape:document-units="px" inkscape:pageshadow="2" inkscape:pageopacity="0.0">
	</sodipodi:namedview>
<g id="layer1" inkscape:label="Layer 1" inkscape:groupmode="layer">
	<g id="g6496" transform="matrix(25.900445,0,0,-25.900445,225.38567,256)">
		<path id="path6498" fill="#FAFAFA" d="M0,0c0.652,0,1.182,0.529,1.182,1.182v7.521c0,0.652-0.53,1.182-1.182,1.182h-7.521
			c-0.652,0-1.181-0.53-1.181-1.182V1.182C-8.702,0.529-8.173,0-7.521,0H0z"/>
	</g>
	<g id="g6500" transform="matrix(25.900445,0,0,-25.900445,30.601687,5.1645488)">
		<path id="path6502" fill="#2358BE" d="M0,0c-0.541,0-0.981-0.44-0.981-0.981v-7.522c0-0.541,0.44-0.981,0.981-0.981h7.521
			c0.541,0,0.981,0.44,0.981,0.981v7.522C8.502-0.44,8.062,0,7.521,0H0z"/>
	</g>
	<g id="g6504" transform="matrix(25.900445,0,0,-25.900445,56.80755,172.70914)">
		<path id="path6506" fill="#F24E4F" d="M0,0c2.317-0.975,4.077-1.543,6.556-2.324c0.05-0.008,0.097,0.027,0.105,0.08
			c0.008,0.051-0.027,0.099-0.078,0.109c-3.904,1.229-6.97,2.59-7.669,2.906c-0.072,0.03-0.156-0.003-0.184-0.074
			c-0.029-0.072,0.002-0.15,0.073-0.177c0.174-0.079,0.345-0.155,0.511-0.227l-0.55-0.42C-1.299-0.219-1.271-0.336-1.18-0.398
			c0.069-0.047,0.166-0.041,0.233,0.002L0,0z"/>
	</g>
	<g id="g6508" transform="matrix(25.900445,0,0,-25.900445,176.77344,66.198844)">
		<path id="path6510" fill="#FAFAFA" d="M0,0c0.365,0,0.66,0.297,0.66,0.662S0.365,1.324,0,1.324c-0.367,0-0.662-0.297-0.662-0.662
			S-0.367,0,0,0"/>
	</g>
	<g id="g6512" transform="matrix(25.900445,0,0,-25.900445,141.059,107.77963)">
		<path id="path6514" fill="#FAFAFA" d="M0,0l1.406,0.691L2.711-0.51C2.77-0.566,2.85-0.602,2.936-0.602
			C3.111-0.6,3.252-0.457,3.25-0.283c0,0.094-0.043,0.178-0.107,0.236L1.277,1.666C1.215,1.727,1.143,1.775,1.063,1.811
			l-1.452,0.517l-0.66,0.955C-1.1,3.354-1.178,3.4-1.27,3.412c-0.171,0.02-0.33-0.105-0.349-0.279
			c-0.008-0.072,0.01-0.143,0.045-0.201L-0.9,1.955c0.031-0.039,0.07-0.072,0.117-0.094l0.781-0.306l-1.283-0.657
			c-0.18-0.101-0.307-0.281-0.342-0.49l0.006-1.174l-1.187-0.535C-2.94-1.365-3.036-1.498-3.042-1.656
			c-0.01-0.227,0.166-0.416,0.393-0.426c0.07-0.004,0.138,0.012,0.197,0.041L-1-1.385C-0.896-1.33-0.818-1.23-0.793-1.109
			l-0.002,0.73l1.008-0.902L0.027-2.818c0-0.01-0.002-0.02-0.002-0.03C0.016-3.074,0.191-3.266,0.418-3.275
			C0.631-3.283,0.813-3.129,0.842-2.92l0.217,1.754c0,0.008,0.002,0.016,0.002,0.023C1.064-1.02,1.016-0.908,0.934-0.83L0,0z"/>
	</g>
</g>
</svg>
