<?xml version="1.0" encoding="utf-8"?>
<!-- Generator: Adobe Illustrator 13.0.0, SVG Export Plug-In . SVG Version: 6.00 Build 14948)  -->
<!DOCTYPE svg PUBLIC "-//W3C//DTD SVG 1.1//EN" "http://www.w3.org/Graphics/SVG/1.1/DTD/svg11.dtd">
<svg version="1.1" id="Layer_1" xmlns="http://www.w3.org/2000/svg" xmlns:xlink="http://www.w3.org/1999/xlink" x="0px" y="0px"
	 width="123.547px" height="123.539px" viewBox="-0.258 -0.548 123.547 123.539"
	 enable-background="new -0.258 -0.548 123.547 123.539" xml:space="preserve">
<g>
	<path fill="#FAFAFA" d="M110.07,122.871c8.156,0,14.772-6.609,14.772-14.766V14.082c0-8.148-6.616-14.758-14.772-14.758H16.055
		c-8.156,0-14.758,6.609-14.758,14.758v94.023c0,8.155,6.602,14.766,14.758,14.766H110.07z"/>
	<path fill="#F24E4F" d="M89.586,26.105c4.57,0,8.266-3.711,8.266-8.273s-3.694-8.266-8.266-8.266c-4.563,0-8.273,3.703-8.273,8.266
		S85.023,26.105,89.586,26.105z"/>
	<path fill="#2358BE" d="M37.172,97.301L9.656,69.699l0.016,4.82l25.609,25.711c2.938,3.188,7.984-0.5,7.984-0.5l-2.422-2.586
		c0,0-2.375,1.562-3.609,0.227L37.172,97.301z"/>
	<rect x="9.891" y="45.246" fill="#2358BE" width="28.156" height="3.359"/>
	<polygon fill="#2358BE" points="114.172,37.215 117.383,38.559 85.414,102.918 81.875,102.918 	"/>
	<path fill="#F24E4F" d="M61.125,32.246L48.258,47.105c-0.758,0.938-1.922,1.516-3.211,1.516c-2.312,0-4.164-1.859-4.164-4.156
		c0-1.242,0.539-2.352,1.406-3.117l13.867-15.969c0.766-0.914,1.914-1.508,3.203-1.508l20.086-0.008
		c1.477,0,2.797,0.594,3.772,1.531l12.806,12.797l10.602-10.586c0.75-0.633,1.711-1.008,2.766-1.008c2.375,0,4.297,1.93,4.297,4.297
		c0,1.039-0.358,1.977-0.969,2.719L99.93,46.504c-3.883,3.875-7.008,0.586-7.008,0.586l-7.852-7.883L72.805,53.395l11.242,11.242
		c0,0,2.367,2.195,1.016,6.578l-6.305,28.078c-0.5,2.438-2.656,4.266-5.234,4.266c-2.953,0-5.344-2.391-5.344-5.344
		c0-0.461,0.047-0.914,0.164-1.344l5.18-23.039L60.758,61.418l-10.992,12.25c0,0-1.781,2.195-6.492,2.023L21,75.73
		c-2.492,0.047-4.75-1.656-5.312-4.181c-0.656-2.883,1.125-5.702,4-6.344c0.453-0.103,0.906-0.142,1.344-0.125l19.164,0.055
		l28.336-32.852L61.125,32.246z"/>
</g>
<path fill="#2358BE" d="M114.195,102.723c-0.008,2.767-2.305,5-5.063,4.992H26.82v3.391h82.297c4.641,0.023,8.422-3.688,8.445-8.352
	L114.195,102.723z"/>
</svg>
