<?xml version="1.0" encoding="utf-8"?>
<!-- Generator: Adobe Illustrator 13.0.0, SVG Export Plug-In . SVG Version: 6.00 Build 14948)  -->
<!DOCTYPE svg PUBLIC "-//W3C//DTD SVG 1.0//EN" "http://www.w3.org/TR/2001/REC-SVG-20010904/DTD/svg10.dtd">
<svg version="1.0"
	 id="svg5294" xmlns:dc="http://purl.org/dc/elements/1.1/" xmlns:cc="http://creativecommons.org/ns#" xmlns:rdf="http://www.w3.org/1999/02/22-rdf-syntax-ns#" xmlns:svg="http://www.w3.org/2000/svg" xmlns:sodipodi="http://sodipodi.sourceforge.net/DTD/sodipodi-0.dtd" xmlns:inkscape="http://www.inkscape.org/namespaces/inkscape" sodipodi:version="0.32" inkscape:version="0.46" sodipodi:docname="pictograms-nps-water-rowboating.svg" inkscape:output_extension="org.inkscape.output.svg.inkscape"
	 xmlns="http://www.w3.org/2000/svg" xmlns:xlink="http://www.w3.org/1999/xlink" x="0px" y="0px" width="256px" height="256px"
	 viewBox="0 0 256 256" enable-background="new 0 0 256 256" xml:space="preserve">
<defs>
	
	
		<inkscape:perspective  id="perspective5302" inkscape:vp_x="0 : 526.18109 : 1" sodipodi:type="inkscape:persp3d" inkscape:vp_y="0 : 1000 : 0" inkscape:vp_z="744.09448 : 526.18109 : 1" inkscape:persp3d-origin="372.04724 : 350.78739 : 1">
		</inkscape:perspective>
</defs>
<sodipodi:namedview  id="base" inkscape:zoom="1.4" showgrid="false" bordercolor="#666666" objecttolerance="10" borderopacity="1.0" guidetolerance="10" pagecolor="#ffffff" gridtolerance="10000" inkscape:cx="124.57192" inkscape:cy="99.800496" inkscape:window-y="309" inkscape:window-x="0" inkscape:window-height="674" inkscape:window-width="747" inkscape:current-layer="layer1" inkscape:document-units="px" inkscape:pageshadow="2" inkscape:pageopacity="0.0">
	</sodipodi:namedview>
<g id="layer1" inkscape:label="Layer 1" inkscape:groupmode="layer">
	<g id="g6450" transform="matrix(25.905687,0,0,-25.905687,225.37948,256)">
		<path id="path6452" fill="#231F20" d="M0,0c0.652,0,1.182,0.529,1.182,1.182v7.521c0,0.652-0.53,1.182-1.182,1.182h-7.521
			c-0.652,0-1.179-0.53-1.179-1.182V1.182C-8.7,0.529-8.173,0-7.521,0H0z"/>
	</g>
	<g id="g6454" transform="matrix(25.905687,0,0,-25.905687,30.556069,5.1137826)">
		<path id="path6456" fill="#FFFFFF" d="M0,0c-0.54,0-0.979-0.44-0.979-0.981v-7.522c0-0.541,0.439-0.981,0.979-0.981h7.521
			c0.541,0,0.981,0.44,0.981,0.981v7.522C8.502-0.44,8.062,0,7.521,0H0z"/>
	</g>
	<g id="g6458" transform="matrix(25.905687,0,0,-25.905687,157.5816,80.934548)">
		<path id="path6460" fill="#231F20" d="M0,0c0.402,0,0.727,0.326,0.727,0.727c0,0.402-0.325,0.728-0.727,0.728
			s-0.729-0.326-0.729-0.728C-0.729,0.326-0.402,0,0,0"/>
	</g>
	<g id="g6462" transform="matrix(25.905687,0,0,-25.905687,231.24991,215.9268)">
		<path id="path6464" fill="#231F20" d="M0,0c-0.172,0-0.338,0.039-0.484,0.104c-0.151,0.07-0.321,0.111-0.498,0.111
			c-0.176,0-0.346-0.041-0.497-0.111C-1.627,0.039-1.791,0-1.963,0c-0.172,0-0.336,0.039-0.482,0.104
			c-0.151,0.07-0.321,0.111-0.498,0.111c-0.178,0-0.348-0.041-0.498-0.111C-3.588,0.039-3.752,0-3.924,0
			C-4.096,0-4.26,0.039-4.408,0.104c-0.151,0.07-0.319,0.111-0.496,0.111c-0.178,0-0.348-0.041-0.498-0.111
			C-5.549,0.039-5.713,0-5.885,0C-6.056,0-6.22,0.039-6.368,0.104c-0.151,0.07-0.32,0.111-0.496,0.111
			c-0.178,0-0.348-0.041-0.498-0.111C-7.509,0.039-7.673,0-7.845,0v0.725c0.172,0,0.336,0.037,0.483,0.103
			c0.15,0.07,0.32,0.111,0.498,0.111c0.176,0,0.345-0.041,0.496-0.111c0.148-0.066,0.312-0.103,0.483-0.103
			c0.172,0,0.336,0.037,0.483,0.103c0.15,0.07,0.32,0.111,0.498,0.111c0.177,0,0.345-0.041,0.496-0.111
			c0.148-0.066,0.312-0.103,0.484-0.103c0.172,0,0.336,0.037,0.483,0.103c0.15,0.07,0.32,0.111,0.498,0.111
			c0.177,0,0.347-0.041,0.498-0.111c0.146-0.066,0.31-0.103,0.482-0.103c0.172,0,0.336,0.037,0.484,0.103
			c0.151,0.07,0.321,0.111,0.497,0.111c0.177,0,0.347-0.041,0.498-0.111C-0.338,0.762-0.172,0.725,0,0.725V0z"/>
	</g>
	<g id="g6466" transform="matrix(25.905687,0,0,-25.905687,40.980103,178.53412)">
		<path id="path6468" fill="#231F20" d="M0,0c0.146,0.066,0.309,0.104,0.48,0.104c0.176,0,0.346-0.041,0.497-0.112
			C1.125-0.072,1.289-0.111,1.46-0.111c0.172,0,0.336,0.039,0.482,0.103C2.093,0.063,2.263,0.104,2.44,0.104
			c0.178,0,0.346-0.041,0.497-0.112c0.148-0.064,0.312-0.103,0.484-0.103c0.172,0,0.336,0.039,0.482,0.103
			c0.096,0.045,0.196,0.074,0.301,0.094L5.458,1.52H3.845l0.668,1.146l1.465-0.801c0.484-0.273,0.841,0.358,0.355,0.631l-2.098,1.16
			c-0.771,0.43-1.097-0.283-1.097-0.283L2.056,1.545l-2.851,0.002C-0.705,1.025-0.236,0.326,0,0"/>
	</g>
	<g id="g6470" transform="matrix(25.905687,0,0,-25.905687,159.65426,176.20779)">
		<path id="path6472" fill="#231F20" d="M0,0c0.111-0.018,0.219-0.051,0.318-0.098c0.147-0.064,0.311-0.103,0.483-0.103
			c0.172,0,0.336,0.039,0.484,0.103c0.151,0.071,0.32,0.112,0.496,0.112c0.178,0,0.348-0.041,0.498-0.112
			c0.147-0.064,0.313-0.103,0.485-0.103L2.76,1.43L1.248,1.432L0,0z"/>
	</g>
</g>
</svg>
