<?xml version="1.0" encoding="utf-8"?>
<!-- Generator: Adobe Illustrator 13.0.0, SVG Export Plug-In . SVG Version: 6.00 Build 14948)  -->
<!DOCTYPE svg PUBLIC "-//W3C//DTD SVG 1.0//EN" "http://www.w3.org/TR/2001/REC-SVG-20010904/DTD/svg10.dtd">
<svg version="1.0"
	 id="svg5294" xmlns:dc="http://purl.org/dc/elements/1.1/" xmlns:cc="http://creativecommons.org/ns#" xmlns:rdf="http://www.w3.org/1999/02/22-rdf-syntax-ns#" xmlns:svg="http://www.w3.org/2000/svg" xmlns:sodipodi="http://sodipodi.sourceforge.net/DTD/sodipodi-0.dtd" xmlns:inkscape="http://www.inkscape.org/namespaces/inkscape" sodipodi:version="0.32" inkscape:version="0.46" sodipodi:docname="pictograms-nps-water-life_jacket.svg" inkscape:output_extension="org.inkscape.output.svg.inkscape"
	 xmlns="http://www.w3.org/2000/svg" xmlns:xlink="http://www.w3.org/1999/xlink" x="0px" y="0px" width="256px" height="256px"
	 viewBox="0 0 256 256" enable-background="new 0 0 256 256" xml:space="preserve">
<defs>
	
	
		<inkscape:perspective  id="perspective5302" inkscape:vp_x="0 : 526.18109 : 1" sodipodi:type="inkscape:persp3d" inkscape:vp_y="0 : 1000 : 0" inkscape:vp_z="744.09448 : 526.18109 : 1" inkscape:persp3d-origin="372.04724 : 350.78739 : 1">
		</inkscape:perspective>
</defs>
<sodipodi:namedview  id="base" inkscape:zoom="1.4" showgrid="false" bordercolor="#666666" objecttolerance="10" borderopacity="1.0" guidetolerance="10" pagecolor="#ffffff" gridtolerance="10000" inkscape:cx="124.57192" inkscape:cy="112.12174" inkscape:window-y="309" inkscape:window-x="0" inkscape:window-height="674" inkscape:window-width="747" inkscape:current-layer="layer1" inkscape:document-units="px" inkscape:pageshadow="2" inkscape:pageopacity="0.0">
	</sodipodi:namedview>
<g id="layer1" inkscape:label="Layer 1" inkscape:groupmode="layer">
	<g id="g6576" transform="matrix(25.900445,0,0,-25.900445,225.38567,256)">
		<path id="path6578" fill="#231F20" d="M0,0c0.652,0,1.182,0.529,1.182,1.182v7.521c0,0.652-0.53,1.18-1.182,1.18h-7.521
			c-0.652,0-1.181-0.528-1.181-1.18V1.182C-8.702,0.529-8.173,0-7.521,0H0z"/>
	</g>
	<g id="g6580" transform="matrix(25.900445,0,0,-25.900445,30.601687,5.2161425)">
		<path id="path6582" fill="#FFFFFF" d="M0,0c-0.541,0-0.981-0.439-0.981-0.979v-7.522c0-0.541,0.44-0.981,0.981-0.981h7.521
			c0.541,0,0.981,0.44,0.981,0.981v7.522C8.502-0.439,8.062,0,7.521,0H0z"/>
	</g>
	<g id="g6584" transform="matrix(25.900445,0,0,-25.900445,121.68257,159.38098)">
		<path id="path6586" fill="#231F20" d="M0,0v-1.539c0,0,0.053-0.404-0.455-0.404h-2.003c-0.508,0-0.455,0.404-0.455,0.404V0H0z"/>
	</g>
	<g id="g6588" transform="matrix(25.900445,0,0,-25.900445,97.755739,46.317662)">
		<path id="path6590" fill="#231F20" d="M0,0c-0.07,0.113-0.195,0.188-0.338,0.188l-0.645-0.002c-0.227,0-0.411-0.184-0.411-0.411
			c0-0.08,0.024-0.154,0.063-0.216l0.004-0.006c0.191-0.272,0.303-0.6,0.303-0.955c0-0.602-0.323-1.131-0.803-1.42l-0.006-0.002
			c-0.092-0.059-0.154-0.16-0.154-0.28v-0.488h2.913v1.795c0,0,0.004,0.166-0.108,0.371L0,0z"/>
	</g>
	<g id="g6592" transform="matrix(25.900445,0,0,-25.900445,157.85306,46.317662)">
		<path id="path6594" fill="#231F20" d="M0,0c0.07,0.113,0.195,0.188,0.338,0.188l0.646-0.002c0.227,0,0.411-0.184,0.411-0.411
			c0-0.08-0.022-0.154-0.061-0.216L1.328-0.447c-0.189-0.272-0.303-0.6-0.303-0.955c0-0.602,0.323-1.131,0.805-1.42l0.004-0.002
			c0.094-0.059,0.156-0.16,0.156-0.28v-0.488h-2.916v1.795c0,0-0.002,0.166,0.11,0.371L0,0z"/>
	</g>
	<g id="g6596" transform="matrix(25.900445,0,0,-25.900445,209.35081,159.38098)">
		<path id="path6598" fill="#231F20" d="M0,0v-1.539c0,0,0.053-0.404-0.455-0.404h-2.004c-0.508,0-0.455,0.404-0.455,0.404V0H0z"/>
	</g>
	<g id="g6600" transform="matrix(25.900445,0,0,-25.900445,134.18005,153.10789)">
		<path id="path6602" fill="#231F20" d="M0,0c0.076,0,0.139,0.063,0.139,0.139c0,0.074-0.063,0.136-0.139,0.136h-0.465
			c-0.076,0-0.137-0.062-0.137-0.136C-0.602,0.063-0.541,0-0.465,0H0z"/>
	</g>
</g>
</svg>
