<?xml version="1.0" encoding="utf-8"?>
<!-- Generator: Adobe Illustrator 13.0.0, SVG Export Plug-In . SVG Version: 6.00 Build 14948)  -->
<!DOCTYPE svg PUBLIC "-//W3C//DTD SVG 1.1//EN" "http://www.w3.org/Graphics/SVG/1.1/DTD/svg11.dtd">
<svg version="1.1" id="Layer_1" xmlns="http://www.w3.org/2000/svg" xmlns:xlink="http://www.w3.org/1999/xlink" x="0px" y="0px"
	 width="123.547px" height="123.539px" viewBox="-0.258 -0.548 123.547 123.539"
	 enable-background="new -0.258 -0.548 123.547 123.539" xml:space="preserve">
<g>
	<path fill="#FAFAFA" d="M109.656,123.48c8.148,0,14.742-6.617,14.742-14.773V14.691c0-8.156-6.594-14.75-14.742-14.75H15.625
		c-8.172,0-14.766,6.594-14.766,14.75v94.016c0,8.156,6.594,14.773,14.766,14.773H109.656z"/>
	<path fill="#2358BE" d="M15.625,2.434c-6.766,0-12.266,5.492-12.266,12.258v94.016c0,6.767,5.5,12.258,12.266,12.258h94.031
		c6.734,0,12.227-5.491,12.227-12.258V14.691c0-6.766-5.492-12.258-12.227-12.258L15.625,2.434L15.625,2.434z"/>
	<polygon fill="#F24E4F" points="12.922,19.965 28.422,35.809 34.375,30.465 28.984,20.012 	"/>
	<path fill="#F24E4F" d="M82.797,64.348c2.93,0.805,6.078-0.852,6.914-3.828c0.805-2.93-0.906-6.008-3.859-6.836l-2.297-0.641
		l-2.977,10.648L82.797,64.348z"/>
	<path fill="#F24E4F" d="M80.992,52.363l-18.555-5.227c-1.22-0.32-2.445,0.414-2.782,1.633l-1.742,6.203
		c-0.344,1.219,0.32,2.469,1.57,2.836l18.555,5.172L80.992,52.363z"/>
	<path fill="#FAFAFA" d="M83.922,69.988c-1.414-1.344-3.172-2.414-5.227-2.978l-22.492-6.297l0,0l-13.82-24.516
		c-0.727-1.266-1.898-2.273-3.414-2.688c-3.031-0.852-6.18,0.93-7.008,3.961c-0.414,1.438-0.219,2.906,0.438,4.148l17.289,30.32
		c0,0,1.414,2.272,4.977,3.444l31.431,8.812l14.577,14.798c0.484,0.508,1.117,0.897,1.875,1.116
		c2.195,0.609,4.492-0.702,5.134-2.875c0.414-1.539-0.078-3.155-1.173-4.155L83.922,69.988z"/>
	<path fill="#F24E4F" d="M100.695,76.113l3.266,4.272l6.641-7.25l-5.608-3.125c0.53-3.93-1.906-7.733-5.812-8.836
		c-4.298-1.195-8.767,1.298-9.961,5.595c-1.22,4.319,1.297,8.766,5.594,9.961C96.859,77.316,98.938,76.996,100.695,76.113z"/>
</g>
</svg>
