<?xml version="1.0" encoding="utf-8"?>
<!-- Generator: Adobe Illustrator 13.0.0, SVG Export Plug-In . SVG Version: 6.00 Build 14948)  -->
<!DOCTYPE svg PUBLIC "-//W3C//DTD SVG 1.0//EN" "http://www.w3.org/TR/2001/REC-SVG-20010904/DTD/svg10.dtd">
<svg version="1.0"
	 id="svg5294" inkscape:output_extension="org.inkscape.output.svg.inkscape" xmlns:dc="http://purl.org/dc/elements/1.1/" xmlns:cc="http://creativecommons.org/ns#" xmlns:sodipodi="http://sodipodi.sourceforge.net/DTD/sodipodi-0.dtd" xmlns:inkscape="http://www.inkscape.org/namespaces/inkscape" xmlns:rdf="http://www.w3.org/1999/02/22-rdf-syntax-ns#" xmlns:svg="http://www.w3.org/2000/svg" sodipodi:version="0.32" inkscape:version="0.46" sodipodi:docname="pictograms-nps-deer_viewing.svg"
	 xmlns="http://www.w3.org/2000/svg" xmlns:xlink="http://www.w3.org/1999/xlink" x="0px" y="0px" width="256px" height="256px"
	 viewBox="0 0 256 256" enable-background="new 0 0 256 256" xml:space="preserve">
<defs>
	
	
		<inkscape:perspective  id="perspective5302" inkscape:vp_z="744.09448 : 526.18109 : 1" inkscape:vp_x="0 : 526.18109 : 1" inkscape:vp_y="0 : 1000 : 0" sodipodi:type="inkscape:persp3d" inkscape:persp3d-origin="372.04724 : 350.78739 : 1">
		</inkscape:perspective>
</defs>
<sodipodi:namedview  id="base" showgrid="false" objecttolerance="10" guidetolerance="10" inkscape:zoom="0.98994949" pagecolor="#ffffff" gridtolerance="10000" borderopacity="1.0" inkscape:cy="62.857143" inkscape:cx="112.80911" bordercolor="#666666" inkscape:window-y="309" inkscape:window-x="1" inkscape:window-height="674" inkscape:window-width="725" inkscape:current-layer="layer1" inkscape:document-units="px" inkscape:pageshadow="2" inkscape:pageopacity="0.0">
	</sodipodi:namedview>
<g id="layer1" inkscape:label="Layer 1" inkscape:groupmode="layer">
	<g id="g6390" transform="matrix(25.897825,0,0,-25.897825,30.611229,5.179565e-2)">
		<path id="path6392" fill="#FAFAFA" d="M0,0c-0.652,0-1.182-0.529-1.182-1.182v-7.521c0-0.652,0.53-1.18,1.182-1.18h7.521
			c0.653,0,1.182,0.528,1.182,1.18v7.521C8.703-0.529,8.174,0,7.521,0H0z"/>
	</g>
	<g id="g6398" transform="matrix(25.897825,0,0,-25.897825,182.70918,52.453869)">
		<path id="path6400" fill="#F24E4F" d="M0,0h0.74c0.098,0,0.178-0.08,0.178-0.178c0-0.099-0.08-0.179-0.178-0.179H0.008
			c-0.047,0-0.094-0.016-0.129-0.051c-0.055-0.057-0.068-0.137-0.037-0.203c0.027-0.059,0.064-0.119,0.105-0.17l0.422,0.002
			C0.4-0.781,0.436-0.789,0.465-0.805l0.992-0.531c0.082-0.051,0.139-0.143,0.139-0.246c0-0.162-0.131-0.291-0.291-0.291H0.658
			L-0.209-4l-0.557-0.557v-2.035c0-0.205-0.168-0.373-0.375-0.373c-0.207,0-0.373,0.168-0.373,0.373v2.19h-1.502l-0.338-0.514
			l0.831-1.445c0.101-0.18,0.037-0.409-0.143-0.51c-0.18-0.102-0.408-0.037-0.51,0.142l-0.851,1.461v0.649l-0.424-0.569v-1.376
			c0-0.207-0.168-0.374-0.375-0.374c-0.205,0-0.373,0.167-0.373,0.374l-0.002,1.459l0.349,0.554v0.66l-0.271-0.423
			C-5.129-4.33-5.145-4.34-5.162-4.34c-0.022,0-0.041,0.018-0.041,0.041v1.471c0.014,0.289,0.256,0.529,0.547,0.529h3.677
			L-0.395-1.4l-0.484,0.482c-0.016,0.014-0.025,0.033-0.025,0.055c0,0.043,0.033,0.076,0.074,0.076l0.353-0.002
			C-0.564-0.605-0.615-0.4-0.615-0.184c0,0.764,0.621,1.385,1.386,1.385c0.1,0,0.18-0.08,0.18-0.18c0-0.097-0.08-0.181-0.18-0.181
			c-0.523,0-0.957-0.395-1.015-0.903C-0.172-0.021-0.09,0,0,0"/>
	</g>
</g>
</svg>
