<?xml version="1.0" encoding="utf-8"?>
<!-- Generator: Adobe Illustrator 13.0.0, SVG Export Plug-In . SVG Version: 6.00 Build 14948)  -->
<!DOCTYPE svg PUBLIC "-//W3C//DTD SVG 1.0//EN" "http://www.w3.org/TR/2001/REC-SVG-20010904/DTD/svg10.dtd">
<svg version="1.0"
	 id="svg8302" inkscape:output_extension="org.inkscape.output.svg.inkscape" xmlns:dc="http://purl.org/dc/elements/1.1/" xmlns:cc="http://creativecommons.org/ns#" xmlns:sodipodi="http://sodipodi.sourceforge.net/DTD/sodipodi-0.dtd" xmlns:inkscape="http://www.inkscape.org/namespaces/inkscape" xmlns:rdf="http://www.w3.org/1999/02/22-rdf-syntax-ns#" xmlns:svg="http://www.w3.org/2000/svg" sodipodi:version="0.32" inkscape:version="0.46" sodipodi:docname="pictograms-nps-winter-ice_fishing.svg"
	 xmlns="http://www.w3.org/2000/svg" xmlns:xlink="http://www.w3.org/1999/xlink" x="0px" y="0px" width="256px" height="256px"
	 viewBox="0 0 256 256" enable-background="new 0 0 256 256" xml:space="preserve">
<defs>
	
	
		<inkscape:perspective  id="perspective8310" inkscape:vp_z="744.09448 : 526.18109 : 1" inkscape:vp_x="0 : 526.18109 : 1" inkscape:vp_y="0 : 1000 : 0" sodipodi:type="inkscape:persp3d" inkscape:persp3d-origin="372.04724 : 350.78739 : 1">
		</inkscape:perspective>
</defs>
<sodipodi:namedview  id="base" showgrid="false" objecttolerance="10" guidetolerance="10" inkscape:zoom="0.7" pagecolor="#ffffff" gridtolerance="10000" borderopacity="1.0" inkscape:cy="136.73676" inkscape:cx="61.634556" bordercolor="#666666" inkscape:window-y="198" inkscape:window-x="0" inkscape:window-height="674" inkscape:window-width="738" inkscape:current-layer="layer1" inkscape:document-units="px" inkscape:pageshadow="2" inkscape:pageopacity="0.0">
	</sodipodi:namedview>
<g id="layer1" inkscape:label="Layer 1" inkscape:groupmode="layer">
	<g id="g7234" transform="matrix(25.903066,0,0,-25.903066,225.35667,256)">
		<path id="path7236" fill="#FAFAFA" d="M0,0c0.652,0,1.182,0.527,1.182,1.18v7.521c0,0.653-0.53,1.182-1.182,1.182h-7.521
			c-0.652,0-1.179-0.529-1.179-1.182V1.18C-8.7,0.527-8.173,0-7.521,0H0z"/>
	</g>
	<g id="g7238" transform="matrix(25.903066,0,0,-25.903066,30.552977,5.1909744)">
		<path id="path7240" fill="#2358BE" d="M0,0c-0.54,0-0.979-0.44-0.979-0.981v-7.522c0-0.54,0.439-0.979,0.979-0.979h7.521
			c0.541,0,0.981,0.439,0.981,0.979v7.522C8.502-0.44,8.062,0,7.521,0H0z"/>
	</g>
	<g id="g7242" transform="matrix(25.903066,0,0,-25.903066,147.44543,166.70757)">
		<path id="path7244" fill="#FAFAFA" d="M0,0c0.178,0,0.322,0.145,0.322,0.322C0.322,0.5,0.178,0.643,0,0.643
			c-0.176,0-0.32-0.143-0.32-0.321C-0.32,0.145-0.176,0,0,0 M3.184-2.316C1.281-2.344-0.709-1.98-2.234-0.756
			c-0.008,0.01-0.014,0.02-0.014,0.035c0,0.028,0.023,0.051,0.053,0.051l1.5-0.002c0.074,0,0.132,0.059,0.132,0.133
			c0,0.055-0.025,0.092-0.082,0.121L-2.002,0.23c-0.027,0.016-0.043,0.043-0.043,0.077c0,0.025,0.01,0.047,0.025,0.062
			c0,0,1.655,1.463,5.204,1.43V-2.316z"/>
	</g>
	<path id="path7246" fill="#FAFAFA" d="M61.427,25.693H24.385v30.048h37.042C61.427,55.741,61.427,25.693,61.427,25.693z"/>
	<path id="path7248" fill="#FAFAFA" d="M232.904,25.693H101.11v29.685h131.794V25.693z"/>
	<g id="g7250" transform="matrix(25.903066,0,0,-25.903066,78.893071,71.593795)">
		<path id="path7252" fill="#F24E4F" d="M0,0c-0.126-0.041-0.218-0.162-0.218-0.303c0-0.14,0.094-0.261,0.218-0.306v-1.983
			c0-0.256-0.204-0.461-0.46-0.461c-0.254,0-0.459,0.205-0.459,0.461c0,0.063,0.012,0.123,0.035,0.178l0.02-0.016l0.162-0.148
			l-0.102,0.904l-0.263-0.609c-0.08-0.188-0.061-0.309-0.061-0.309c0-0.369,0.299-0.67,0.668-0.67c0.371,0,0.669,0.301,0.669,0.67
			v1.987c0.125,0.044,0.215,0.164,0.215,0.302c0,0.141-0.09,0.262-0.215,0.307v1.767H0V0z"/>
	</g>
</g>
</svg>
