<?xml version="1.0" encoding="utf-8"?>
<!-- Generator: Adobe Illustrator 13.0.0, SVG Export Plug-In . SVG Version: 6.00 Build 14948)  -->
<!DOCTYPE svg PUBLIC "-//W3C//DTD SVG 1.1//EN" "http://www.w3.org/Graphics/SVG/1.1/DTD/svg11.dtd">
<svg version="1.1" id="Layer_1" xmlns="http://www.w3.org/2000/svg" xmlns:xlink="http://www.w3.org/1999/xlink" x="0px" y="0px"
	 width="123.547px" height="123.539px" viewBox="-0.258 -0.548 123.547 123.539"
	 enable-background="new -0.258 -0.548 123.547 123.539" xml:space="preserve">
<g>
	<path fill="#FAFAFA" d="M109.641,123.707c8.156,0,14.767-6.617,14.767-14.766V14.918c0-8.148-6.609-14.766-14.767-14.766H15.617
		c-8.156,0-14.758,6.617-14.758,14.766v94.023c0,8.147,6.602,14.766,14.758,14.766H109.641z"/>
	<g>
		<path fill="#3B5998" d="M111.961,112.676c-2.125,0-4.203-0.492-6.031-1.32c-1.883-0.883-4.008-1.391-6.227-1.391
			c-2.195,0-4.32,0.508-6.203,1.391c-1.852,0.828-3.906,1.32-6.055,1.32c-2.149,0-4.195-0.492-6.031-1.32
			c-1.875-0.883-4-1.391-6.227-1.391c-2.195,0-4.32,0.508-6.22,1.391c-1.836,0.828-3.883,1.32-6.03,1.32
			c-2.148,0-4.204-0.492-6.04-1.32c-1.891-0.883-4.008-1.391-6.227-1.391c-2.211,0-4.32,0.508-6.211,1.391
			c-1.844,0.828-3.898,1.32-6.047,1.32s-4.195-0.492-6.039-1.32c-1.883-0.883-4.008-1.391-6.211-1.391
			c-2.227,0-4.336,0.508-6.219,1.391c-1.844,0.828-3.891,1.32-6.039,1.32v-9.062c2.148,0,4.195-0.484,6.039-1.313
			c1.883-0.858,3.992-1.366,6.219-1.366c2.203,0,4.328,0.508,6.211,1.366c1.844,0.828,3.891,1.313,6.039,1.313
			s4.203-0.484,6.047-1.313c1.891-0.858,4-1.366,6.211-1.366c2.219,0,4.336,0.508,6.227,1.366c1.836,0.828,3.891,1.313,6.04,1.313
			c2.147,0,4.194-0.484,6.03-1.313c1.898-0.858,4.023-1.366,6.22-1.366c2.227,0,4.352,0.508,6.227,1.366
			c1.836,0.828,3.883,1.313,6.031,1.313c2.147,0,4.203-0.484,6.055-1.313c1.883-0.858,4.008-1.366,6.203-1.366
			c2.219,0,4.344,0.508,6.227,1.366c1.828,0.828,3.906,1.313,6.031,1.313V112.676z"/>
		<path fill="#F44E50" d="M24.43,60.285c3.281,0,5.945-2.664,5.945-5.938s-2.664-5.93-5.945-5.93c-3.273,0-5.938,2.656-5.938,5.93
			S21.156,60.285,24.43,60.285z"/>
		<path fill="#F44E50" d="M50.539,87.207H33.547c-2.5,0-4.68-1.484-5.656-3.633L21.61,69.238c-0.125-0.484-0.188-0.978-0.188-1.484
			c0-3.445,2.789-6.227,6.219-6.227l13.805-0.023l9.469-4.297c0.148-0.102,0.539-0.195,0.953-0.195c1.625,0,2.953,1.344,2.953,2.953
			c0,1-0.508,1.906-1.266,2.438L43.25,67.043c-0.68,0.539-1.977,0.609-1.977,0.609H35.07l5.203,11.547h11.484l0,0
			c1.133,0,1.93,0.391,2.625,1.008l11.259,10.688l0,0c1.562,1.47,1.664,3.931,0.202,5.517c-1.491,1.562-3.961,1.664-5.523,0.203l0,0
			L50.539,87.207z"/>
		<path fill="#F2EA72" d="M103.484,67.801c0.219,0.367,0.758,0.516,1.25,0.516c0.953,0,1.733-0.78,1.733-1.758
			c0-0.469-0.227-0.883-0.444-1.272C95.406,45.02,66.742,51.051,63.227,52.371c-0.586,0.219-0.93,0.883-0.93,1.539
			c0,0.953,0.781,1.734,1.734,1.734c0.297,0,0.438-0.023,0.688-0.102C92.844,49.223,102,65.238,103.484,67.801z M108.367,69.629
			L72.406,92.316L39.672,8.691C68.969,12.574,106.219,35.332,108.367,69.629z"/>
	</g>
</g>
</svg>
