<?xml version="1.0" encoding="utf-8"?>
<!-- Generator: Adobe Illustrator 13.0.0, SVG Export Plug-In . SVG Version: 6.00 Build 14948)  -->
<!DOCTYPE svg PUBLIC "-//W3C//DTD SVG 1.0//EN" "http://www.w3.org/TR/2001/REC-SVG-20010904/DTD/svg10.dtd">
<svg version="1.0"
	 id="svg5294" xmlns:dc="http://purl.org/dc/elements/1.1/" xmlns:cc="http://creativecommons.org/ns#" xmlns:rdf="http://www.w3.org/1999/02/22-rdf-syntax-ns#" xmlns:svg="http://www.w3.org/2000/svg" xmlns:sodipodi="http://sodipodi.sourceforge.net/DTD/sodipodi-0.dtd" xmlns:inkscape="http://www.inkscape.org/namespaces/inkscape" sodipodi:version="0.32" inkscape:version="0.46" sodipodi:docname="pictograms-nps-water-kayaking.svg" inkscape:output_extension="org.inkscape.output.svg.inkscape"
	 xmlns="http://www.w3.org/2000/svg" xmlns:xlink="http://www.w3.org/1999/xlink" x="0px" y="0px" width="256px" height="256px"
	 viewBox="0 0 256 256" enable-background="new 0 0 256 256" xml:space="preserve">
<defs>
	
	
		<inkscape:perspective  id="perspective5302" inkscape:vp_x="0 : 526.18109 : 1" sodipodi:type="inkscape:persp3d" inkscape:vp_y="0 : 1000 : 0" inkscape:vp_z="744.09448 : 526.18109 : 1" inkscape:persp3d-origin="372.04724 : 350.78739 : 1">
		</inkscape:perspective>
</defs>
<sodipodi:namedview  id="base" inkscape:zoom="1.4" showgrid="false" bordercolor="#666666" objecttolerance="10" borderopacity="1.0" guidetolerance="10" pagecolor="#ffffff" gridtolerance="10000" inkscape:cx="124.57192" inkscape:cy="112.12174" inkscape:window-y="309" inkscape:window-x="0" inkscape:window-height="674" inkscape:window-width="747" inkscape:current-layer="layer1" inkscape:document-units="px" inkscape:pageshadow="2" inkscape:pageopacity="0.0">
	</sodipodi:namedview>
<g id="layer1" inkscape:label="Layer 1" inkscape:groupmode="layer">
	<g id="g8222" transform="matrix(25.88735,0,0,-25.88735,225.42704,256)">
		<path id="path8224" fill="#231F20" d="M0,0c0.652,0,1.182,0.529,1.182,1.184v7.523c0,0.652-0.53,1.182-1.182,1.182h-7.526
			c-0.653,0-1.182-0.53-1.182-1.182V1.184C-8.708,0.529-8.179,0-7.526,0H0z"/>
	</g>
	<g id="g8226" transform="matrix(25.88735,0,0,-25.88735,30.59077,5.1930023)">
		<path id="path8228" fill="#FFFFFF" d="M0,0c-0.541,0-0.981-0.44-0.981-0.981v-7.524c0-0.542,0.44-0.983,0.981-0.983h7.526
			c0.541,0,0.982,0.441,0.982,0.983v7.524C8.508-0.44,8.067,0,7.526,0H0z"/>
	</g>
	<g id="g8230" transform="matrix(25.88735,0,0,-25.88735,199.31457,158.46951)">
		<path id="path8232" fill="#231F20" d="M0,0c-0.178,0-0.348-0.041-0.498-0.111c-0.148-0.065-0.313-0.104-0.484-0.104
			c-0.172,0-0.336,0.039-0.485,0.104C-1.617-0.041-1.787,0-1.965,0c-0.176,0-0.346-0.041-0.498-0.111
			c-0.146-0.065-0.31-0.104-0.482-0.104S-3.283-0.176-3.43-0.111C-3.58-0.041-3.75,0-3.928,0c-0.177,0-0.347-0.041-0.498-0.111
			c-0.148-0.065-0.312-0.104-0.483-0.104c-0.172,0-0.336,0.039-0.485,0.104C-5.544-0.041-5.712,0-5.89,0
			c-0.177,0-0.347-0.041-0.498-0.111C-6.536-0.176-6.7-0.215-6.872-0.215v-0.724c0.172,0,0.336,0.039,0.484,0.103
			c0.151,0.07,0.321,0.111,0.498,0.111c0.178,0,0.346-0.041,0.496-0.111c0.125-0.055,0.264-0.086,0.407-0.096l-0.602-0.599
			C-5.78-1.412-6.034-1.434-6.2-1.6l-0.69-0.689c-0.191-0.191-0.191-0.502,0-0.695c0.194-0.192,0.504-0.192,0.696,0l0.689,0.689
			c0.156,0.156,0.184,0.391,0.086,0.576l0.829,0.828c0.057,0.018,0.111,0.032,0.164,0.055c0.151,0.07,0.321,0.111,0.498,0.111
			c0.178,0,0.348-0.041,0.498-0.111C-3.283-0.9-3.117-0.939-2.945-0.939S-2.609-0.9-2.463-0.836c0.152,0.07,0.322,0.111,0.498,0.111
			c0.178,0,0.348-0.041,0.498-0.111C-1.318-0.9-1.154-0.939-0.982-0.939c0.171,0,0.336,0.039,0.484,0.103
			c0.15,0.07,0.32,0.111,0.498,0.111s0.346-0.041,0.498-0.111C0.645-0.9,0.811-0.939,0.982-0.939v0.724
			c-0.171,0-0.337,0.039-0.484,0.104C0.346-0.041,0.178,0,0,0"/>
	</g>
	<g id="g8234" transform="matrix(25.88735,0,0,-25.88735,124.96341,127.80315)">
		<path id="path8236" fill="#231F20" d="M0,0h-0.21l0.422,1.405l0.871-0.322L0,0z M3.207,2.359l0.689,0.69
			c0.194,0.193,0.194,0.504,0,0.695c-0.191,0.194-0.503,0.194-0.695,0L2.512,3.055c-0.166-0.166-0.188-0.42-0.067-0.61L1.587,1.587
			l-1.703,0.631C-0.161,2.243-0.208,2.265-0.261,2.28c-0.371,0.112-0.763-0.099-0.875-0.47l-0.523-1.754
			C-1.666,0.035-1.668,0.018-1.67,0h-2.328v-0.941c0.127,0,0.258,0.029,0.373,0.08c0.189,0.088,0.4,0.134,0.607,0.134
			c0.207,0,0.416-0.046,0.602-0.132c0.123-0.055,0.25-0.082,0.379-0.082c0.13,0,0.257,0.027,0.374,0.08
			c0.191,0.088,0.4,0.134,0.607,0.134c0.209,0,0.414-0.044,0.604-0.132c0.119-0.055,0.25-0.082,0.379-0.082s0.256,0.027,0.375,0.08
			c0.189,0.088,0.4,0.134,0.605,0.134c0.211,0,0.414-0.044,0.604-0.132C1.632-0.914,1.763-0.941,1.89-0.941
			c0.129,0,0.257,0.027,0.375,0.08c0.189,0.088,0.4,0.134,0.607,0.134c0.035,0,0.179-0.01,0.319,0.083
			c0.25,0.11,0.344,0.172,0.562,0.306C3.933-0.228,4.082,0.013,3.69,0C3.582-0.004,0.355,0,0.355,0l0.988,0.987l0.133-0.05
			C1.644,0.876,1.831,0.962,1.894,1.13c0.043,0.119,0.009,0.248-0.073,0.334l0.81,0.811C2.816,2.178,3.051,2.203,3.207,2.359"/>
	</g>
	<g id="g8238" transform="matrix(25.88735,0,0,-25.88735,124.78469,46.524745)">
		<path id="path8240" fill="#231F20" d="M0,0l-0.09-0.191c-0.058-0.12-0.18-0.202-0.318-0.202h-0.211
			c0.121-0.171,0.32-0.283,0.545-0.283c0.367,0,0.666,0.297,0.666,0.664v0.035H0.031C0.018,0.023,0.004,0.014,0,0"/>
	</g>
	<g id="g8242" transform="matrix(25.88735,0,0,-25.88735,114.21747,52.339043)">
		<path id="path8244" fill="#231F20" d="M0,0c0.072,0,0.137,0.043,0.166,0.105l0.088,0.192c0.033,0.072,0.103,0.121,0.185,0.121
			h0.688c-0.09,0.353-0.412,0.613-0.793,0.613c-0.451,0-0.816-0.365-0.816-0.818c0-0.072,0.007-0.145,0.027-0.213H0z"/>
	</g>
</g>
</svg>
