<?xml version="1.0" encoding="utf-8"?>
<!-- Generator: Adobe Illustrator 13.0.0, SVG Export Plug-In . SVG Version: 6.00 Build 14948)  -->
<!DOCTYPE svg PUBLIC "-//W3C//DTD SVG 1.0//EN" "http://www.w3.org/TR/2001/REC-SVG-20010904/DTD/svg10.dtd">
<svg version="1.0"
	 id="svg5294" xmlns:dc="http://purl.org/dc/elements/1.1/" xmlns:cc="http://creativecommons.org/ns#" xmlns:rdf="http://www.w3.org/1999/02/22-rdf-syntax-ns#" xmlns:svg="http://www.w3.org/2000/svg" xmlns:sodipodi="http://sodipodi.sourceforge.net/DTD/sodipodi-0.dtd" xmlns:inkscape="http://www.inkscape.org/namespaces/inkscape" sodipodi:version="0.32" inkscape:version="0.46" sodipodi:docname="pictograms-nps-whale_viewing.svg" inkscape:output_extension="org.inkscape.output.svg.inkscape"
	 xmlns="http://www.w3.org/2000/svg" xmlns:xlink="http://www.w3.org/1999/xlink" x="0px" y="0px" width="256px" height="256px"
	 viewBox="0 0 256 256" enable-background="new 0 0 256 256" xml:space="preserve">
<defs>
	
	
		<inkscape:perspective  id="perspective5302" inkscape:vp_x="0 : 526.18109 : 1" sodipodi:type="inkscape:persp3d" inkscape:vp_y="0 : 1000 : 0" inkscape:vp_z="744.09448 : 526.18109 : 1" inkscape:persp3d-origin="372.04724 : 350.78739 : 1">
		</inkscape:perspective>
</defs>
<sodipodi:namedview  id="base" inkscape:zoom="1.4" showgrid="false" bordercolor="#666666" objecttolerance="10" borderopacity="1.0" guidetolerance="10" pagecolor="#ffffff" gridtolerance="10000" inkscape:cx="124.57192" inkscape:cy="95.799496" inkscape:window-y="309" inkscape:window-x="0" inkscape:window-height="674" inkscape:window-width="747" inkscape:current-layer="layer1" inkscape:document-units="px" inkscape:pageshadow="2" inkscape:pageopacity="0.0">
	</sodipodi:namedview>
<g id="layer1" inkscape:label="Layer 1" inkscape:groupmode="layer">
	<g id="g6616" transform="matrix(25.905687,0,0,-25.905687,225.37948,256)">
		<path id="path6618" fill="#FAFAFA" d="M0,0c0.654,0,1.182,0.529,1.182,1.182v7.521c0,0.652-0.528,1.18-1.182,1.18h-7.521
			c-0.652,0-1.179-0.528-1.179-1.18V1.182C-8.7,0.529-8.173,0-7.521,0H0z"/>
	</g>
	<g id="g6624" transform="matrix(25.905687,0,0,-25.905687,230.23669,230.54984)">
		<path id="path6626" fill="#2358BE" d="M0,0c-0.172,0-0.336,0.039-0.482,0.105C-0.635,0.176-0.805,0.217-0.98,0.217
			c-0.178,0-0.348-0.041-0.499-0.112C-1.625,0.039-1.791,0-1.961,0c-0.172,0-0.338,0.039-0.484,0.105
			c-0.151,0.071-0.321,0.112-0.498,0.112c-0.176,0-0.346-0.041-0.496-0.112C-3.586,0.039-3.752,0-3.924,0
			C-4.096,0-4.26,0.039-4.406,0.105c-0.151,0.071-0.321,0.112-0.498,0.112c-0.176,0-0.346-0.041-0.498-0.112
			C-5.549,0.039-5.713,0-5.884,0C-6.056,0-6.22,0.039-6.366,0.105c-0.151,0.071-0.321,0.112-0.498,0.112
			c-0.176,0-0.346-0.041-0.498-0.112C-7.509,0.039-7.673,0-7.845,0v0.725c0.172,0,0.336,0.039,0.483,0.105
			C-7.21,0.898-7.04,0.939-6.864,0.939c0.177,0,0.347-0.041,0.498-0.109c0.146-0.066,0.31-0.105,0.482-0.105
			c0.171,0,0.335,0.039,0.482,0.105C-5.25,0.898-5.08,0.939-4.904,0.939c0.177,0,0.347-0.041,0.498-0.109
			c0.146-0.066,0.31-0.105,0.482-0.105c0.172,0,0.338,0.039,0.485,0.105c0.15,0.068,0.32,0.109,0.496,0.109
			c0.177,0,0.347-0.041,0.498-0.109c0.146-0.066,0.312-0.105,0.484-0.105c0.17,0,0.336,0.039,0.482,0.105
			c0.151,0.068,0.321,0.109,0.499,0.109c0.175,0,0.345-0.041,0.498-0.109C-0.336,0.764-0.172,0.725,0,0.725V0z"/>
	</g>
	<g id="g6628" transform="matrix(25.905687,0,0,-25.905687,148.17038,191.79265)">
		<path id="path6630" fill="#F24E4F" d="M0,0c0.074,0.016,0.148,0.023,0.225,0.023c0.177,0,0.347-0.041,0.498-0.109
			c0.146-0.066,0.312-0.105,0.484-0.105c0.17,0,0.336,0.039,0.482,0.105c0.104,0.047,0.215,0.084,0.334,0.1
			C1.959,1.957-0.068,3.691-0.164,3.781c-0.1,0.09-0.191,0.287-0.127,0.52l0.484,1.601c0.086,0.248,0.043,0.58-0.076,0.68
			c-0.068,0.055-0.213,0.094-0.31-0.018l-1.311-1.486c-0.287-0.305-0.047-0.631-0.053-0.629c-0.445,0.16-0.968,0.053-1.286-0.078
			l-1.082-0.549c-0.107-0.045-0.154-0.181-0.097-0.273c0.179-0.287,0.775-0.289,2.016-0.154C0,3.609,0.002,0.396,0,0"/>
	</g>
</g>
</svg>
