<?xml version="1.0" encoding="utf-8"?>
<!-- Generator: Adobe Illustrator 13.0.0, SVG Export Plug-In . SVG Version: 6.00 Build 14948)  -->
<!DOCTYPE svg PUBLIC "-//W3C//DTD SVG 1.0//EN" "http://www.w3.org/TR/2001/REC-SVG-20010904/DTD/svg10.dtd">
<svg version="1.0"
	 id="svg5294" inkscape:output_extension="org.inkscape.output.svg.inkscape" xmlns:dc="http://purl.org/dc/elements/1.1/" xmlns:cc="http://creativecommons.org/ns#" xmlns:sodipodi="http://sodipodi.sourceforge.net/DTD/sodipodi-0.dtd" xmlns:inkscape="http://www.inkscape.org/namespaces/inkscape" xmlns:rdf="http://www.w3.org/1999/02/22-rdf-syntax-ns#" xmlns:svg="http://www.w3.org/2000/svg" sodipodi:version="0.32" inkscape:version="0.46" sodipodi:docname="pictograms-nps-water-seal_viewing.svg"
	 xmlns="http://www.w3.org/2000/svg" xmlns:xlink="http://www.w3.org/1999/xlink" x="0px" y="0px" width="256px" height="256px"
	 viewBox="0 0 256 256" enable-background="new 0 0 256 256" xml:space="preserve">
<defs>
	
	
		<inkscape:perspective  id="perspective5302" inkscape:vp_z="744.09448 : 526.18109 : 1" inkscape:vp_x="0 : 526.18109 : 1" inkscape:vp_y="0 : 1000 : 0" sodipodi:type="inkscape:persp3d" inkscape:persp3d-origin="372.04724 : 350.78739 : 1">
		</inkscape:perspective>
</defs>
<sodipodi:namedview  id="base" showgrid="false" objecttolerance="10" guidetolerance="10" inkscape:zoom="1.4" pagecolor="#ffffff" gridtolerance="10000" borderopacity="1.0" inkscape:cy="109.97938" inkscape:cx="124.57192" bordercolor="#666666" inkscape:window-y="309" inkscape:window-x="0" inkscape:window-height="674" inkscape:window-width="747" inkscape:current-layer="layer1" inkscape:document-units="px" inkscape:pageshadow="2" inkscape:pageopacity="0.0">
	</sodipodi:namedview>
<g id="layer1" inkscape:label="Layer 1" inkscape:groupmode="layer">
	<g id="g6604" transform="matrix(26.938861,0,0,-26.938861,225.42439,256)">
		<path id="path6606" fill="#FAFAFA" d="M0,0c0.627,0,1.135,0.51,1.135,1.137v7.232c0,0.627-0.508,1.135-1.135,1.135h-7.231
			c-0.629,0-1.137-0.508-1.137-1.135V1.137C-8.368,0.51-7.86,0-7.231,0H0z"/>
	</g>
	<g id="g6608" transform="matrix(26.938861,0,0,-26.938861,30.61871,5.3692383)">
		<path id="path6610" fill="#2358BE" d="M0,0c-0.517,0-0.937-0.419-0.937-0.935v-7.232c0-0.517,0.42-0.937,0.937-0.937h7.231
			c0.516,0,0.935,0.42,0.935,0.937v7.232C8.166-0.419,7.747,0,7.231,0H0z"/>
	</g>
	<g id="g6612" transform="matrix(26.938861,0,0,-26.938861,200.80227,76.42555)">
		<path id="path6614" fill="#FAFAFA" d="M0,0v-1.842c0-0.451-0.135-0.869-0.371-1.219c0.047-0.058,0.092-0.128,0.131-0.218
			c0.115-0.262,0.056-0.555-0.125-0.752l-0.942-0.977c-0.015-0.021-0.039-0.041-0.066-0.053c-0.08-0.035-0.172,0.002-0.205,0.081
			c-0.016,0.035-0.018,0.072-0.008,0.105l0.197,0.996c-0.248-0.096-0.517-0.148-0.799-0.148l-2.115,0.002
			c0.567-0.387,0.567-1.139,0.565-1.153C-3.742-5.23-3.748-5.27-3.764-5.316c-0.021-0.061-0.06-0.127-0.15-0.1L-5.2-4.404
			c-0.59,0.422-1.094,1.121-0.846,1.84c0.172,0.49,0.66,0.695,1.137,0.779l2.68,0.539l1.168,2.1c0.143,0.248,0.518,0.427,0.768,0.41
			c0.252-0.018,0.434-0.086,0.611-0.241L0.896,0.9c0.061-0.004,0.106-0.054,0.102-0.115L0.934,0.551
			C0.912,0.498,0.889,0.459,0.84,0.426L0,0z"/>
	</g>
</g>
</svg>
