<?xml version="1.0" encoding="utf-8"?>
<!-- Generator: Adobe Illustrator 13.0.0, SVG Export Plug-In . SVG Version: 6.00 Build 14948)  -->
<!DOCTYPE svg PUBLIC "-//W3C//DTD SVG 1.0//EN" "http://www.w3.org/TR/2001/REC-SVG-20010904/DTD/svg10.dtd">
<svg version="1.0"
	 id="svg5294" xmlns:dc="http://purl.org/dc/elements/1.1/" xmlns:cc="http://creativecommons.org/ns#" xmlns:rdf="http://www.w3.org/1999/02/22-rdf-syntax-ns#" xmlns:svg="http://www.w3.org/2000/svg" xmlns:sodipodi="http://sodipodi.sourceforge.net/DTD/sodipodi-0.dtd" xmlns:inkscape="http://www.inkscape.org/namespaces/inkscape" sodipodi:version="0.32" inkscape:version="0.46" sodipodi:docname="pictograms-nps-waterskiing.svg" inkscape:output_extension="org.inkscape.output.svg.inkscape"
	 xmlns="http://www.w3.org/2000/svg" xmlns:xlink="http://www.w3.org/1999/xlink" x="0px" y="0px" width="256px" height="256px"
	 viewBox="0 0 256 256" enable-background="new 0 0 256 256" xml:space="preserve">
<defs>
	
	
		<inkscape:perspective  id="perspective5302" inkscape:vp_x="0 : 526.18109 : 1" sodipodi:type="inkscape:persp3d" inkscape:vp_y="0 : 1000 : 0" inkscape:vp_z="744.09448 : 526.18109 : 1" inkscape:persp3d-origin="372.04724 : 350.78739 : 1">
		</inkscape:perspective>
</defs>
<sodipodi:namedview  id="base" inkscape:zoom="1.4" showgrid="false" bordercolor="#666666" objecttolerance="10" borderopacity="1.0" guidetolerance="10" pagecolor="#ffffff" gridtolerance="10000" inkscape:cx="124.57192" inkscape:cy="94.331652" inkscape:window-y="309" inkscape:window-x="0" inkscape:window-height="674" inkscape:window-width="747" inkscape:current-layer="layer1" inkscape:document-units="px" inkscape:pageshadow="2" inkscape:pageopacity="0.0">
	</sodipodi:namedview>
<g id="layer1" inkscape:label="Layer 1" inkscape:groupmode="layer">
	<g id="g6474" transform="matrix(25.900445,0,0,-25.900445,225.38567,256)">
		<path id="path6476" fill="#FAFAFA" d="M0,0c0.652,0,1.182,0.529,1.182,1.182v7.521c0,0.652-0.53,1.18-1.182,1.18h-7.521
			c-0.652,0-1.181-0.528-1.181-1.18V1.182C-8.702,0.529-8.173,0-7.521,0H0z"/>
	</g>
	<path id="path6484" fill="#231F20" d="M149.557,206.576c1.477-0.258,2.927-0.361,4.455-0.361c4.609,0,9.014,1.061,12.898,2.9
		c3.781,1.657,8.029,2.668,12.484,2.668c4.454,0,8.754-1.011,12.561-2.668c3.886-1.84,8.289-2.9,12.848-2.9
		c4.609,0,8.986,1.061,12.898,2.9c3.781,1.657,8.08,2.668,12.483,2.668v18.777c-4.403,0-8.702-1.01-12.483-2.746
		c-3.912-1.761-8.289-2.822-12.898-2.822c-4.559,0-8.962,1.062-12.848,2.822c-3.807,1.736-8.106,2.746-12.561,2.746
		c-4.455,0-8.703-1.01-12.484-2.746c-3.885-1.761-8.289-2.822-12.898-2.822c-4.559,0-8.962,1.062-12.898,2.822
		c-3.808,1.736-8.055,2.746-12.51,2.746c-4.429,0-8.703-1.01-12.484-2.746c-3.885-1.761-8.288-2.822-12.898-2.822
		s-9.013,1.062-12.898,2.822c-3.807,1.736-8.055,2.746-12.484,2.746c-4.429,0-8.677-1.01-12.484-2.746
		c-3.937-1.761-8.34-2.822-12.898-2.822c-4.61,0-9.014,1.062-12.898,2.822c-3.808,1.736-8.055,2.746-12.484,2.746v-18.777
		c4.429,0,8.677-1.011,12.484-2.668c3.885-1.84,8.288-2.9,12.898-2.9c4.558,0,8.961,1.061,12.898,2.9
		c3.807,1.657,8.055,2.668,12.484,2.668c4.429,0,8.677-1.011,12.484-2.668c2.228-1.01,4.559-1.84,6.967-2.279l118.391-21.109
		c3.833-0.906,9.039-3.574,10.878-8.184c0.337-0.855,1.605-1.114,2.668-1.063c1.916,0.104,3.341,1.762,3.341,3.678
		c0,3.057-2.331,11.552-15.281,14.168L149.557,206.576z"/>
</g>
</svg>
