<?xml version="1.0" encoding="utf-8"?>
<!-- Generator: Adobe Illustrator 13.0.0, SVG Export Plug-In . SVG Version: 6.00 Build 14948)  -->
<!DOCTYPE svg PUBLIC "-//W3C//DTD SVG 1.1//EN" "http://www.w3.org/Graphics/SVG/1.1/DTD/svg11.dtd">
<svg version="1.1" id="Layer_1" xmlns="http://www.w3.org/2000/svg" xmlns:xlink="http://www.w3.org/1999/xlink" x="0px" y="0px"
	 width="123.547px" height="123.539px" viewBox="-0.258 -0.548 123.547 123.539"
	 enable-background="new -0.258 -0.548 123.547 123.539" xml:space="preserve">
<g>
	<path fill="#FAFAFA" d="M109.656,123.285c8.125,0,14.742-6.586,14.742-14.742V14.496c0-8.148-6.617-14.742-14.742-14.742H15.641
		c-8.156,0-14.773,6.594-14.773,14.742v94.047c0,8.156,6.617,14.742,14.773,14.742H109.656L109.656,123.285z"/>
	<path fill="#FAFAFA" d="M15.641,2.246c-6.766,0-12.266,5.492-12.266,12.25v94.047c0,6.734,5.5,12.234,12.266,12.234h94.016
		c6.758,0,12.25-5.5,12.25-12.234V14.496c0-6.758-5.492-12.25-12.25-12.25H15.641z"/>
	<path fill="#F24E4F" d="M64.023,25.488c4.562,0,8.25-3.711,8.25-8.281c0-4.562-3.688-8.25-8.25-8.25
		c-4.563,0-8.273,3.688-8.273,8.25C55.75,21.777,59.461,25.488,64.023,25.488z"/>
	<path fill="#61BB49" d="M50.062,26.855c0.32-1.273-0.484-2.539-1.734-2.859l-6.883-1.656c-1.289-0.297-2.562,0.461-2.852,1.727
		L32.805,48.02c-0.32,1.273,0.461,2.539,1.734,2.859l6.906,1.656c1.25,0.32,2.539-0.461,2.836-1.734L50.062,26.855z"/>
	<path fill="#F0EA70" d="M81.844,112.035c0,0.047-0.023,0.094-0.023,0.117c0,1.055,0.859,1.906,1.906,1.906
		c0.953,0,1.758-0.734,1.875-1.656l13.875-75.219c0-0.055,0-0.102,0-0.148c0-1.023-0.836-1.883-1.883-1.883
		c-0.953,0-1.688,0.734-1.883,1.664L81.844,112.035z"/>
	<path fill="#F24E4F" d="M35.711,107.105c-0.078,0.391-0.102,0.78-0.102,1.172c0,3.219,2.594,5.805,5.812,5.805
		c2.641,0,4.859-1.758,5.57-4.148l9.984-41.336l9.516,41.094c0.608,2.539,2.905,4.392,5.608,4.392c3.228,0,5.813-2.586,5.813-5.806
		c0-0.444-0.047-0.858-0.125-1.272L64.734,52.418l1.094-4.812l0.859,3.781c0.78,2.469,3.022,2.711,3.022,2.711l13.453,3.422
		c0.267,0.047,0.539,0.07,0.805,0.07c2.195,0,3.978-1.758,3.978-3.953c0-1.883-1.289-3.469-3.047-3.883l-11.648-2.93l-3.195-12.992
		c-1.516-7.25-8.445-7.078-8.445-7.078c-6.734-0.172-8.422,6.914-8.422,6.914L35.711,107.105z"/>
</g>
</svg>
