<?xml version="1.0" encoding="utf-8"?>
<!-- Generator: Adobe Illustrator 13.0.0, SVG Export Plug-In . SVG Version: 6.00 Build 14948)  -->
<!DOCTYPE svg PUBLIC "-//W3C//DTD SVG 1.0//EN" "http://www.w3.org/TR/2001/REC-SVG-20010904/DTD/svg10.dtd">
<svg version="1.0"
	 id="svg5294" inkscape:output_extension="org.inkscape.output.svg.inkscape" xmlns:dc="http://purl.org/dc/elements/1.1/" xmlns:cc="http://creativecommons.org/ns#" xmlns:sodipodi="http://sodipodi.sourceforge.net/DTD/sodipodi-0.dtd" xmlns:inkscape="http://www.inkscape.org/namespaces/inkscape" xmlns:rdf="http://www.w3.org/1999/02/22-rdf-syntax-ns#" xmlns:svg="http://www.w3.org/2000/svg" sodipodi:version="0.32" inkscape:version="0.46" sodipodi:docname="pictograms-nps-misc-snack_bar.svg"
	 xmlns="http://www.w3.org/2000/svg" xmlns:xlink="http://www.w3.org/1999/xlink" x="0px" y="0px" width="256px" height="256px"
	 viewBox="0 0 256 256" enable-background="new 0 0 256 256" xml:space="preserve">
<defs>
	
	
		<inkscape:perspective  id="perspective5302" inkscape:vp_z="744.09448 : 526.18109 : 1" inkscape:vp_x="0 : 526.18109 : 1" inkscape:vp_y="0 : 1000 : 0" sodipodi:type="inkscape:persp3d" inkscape:persp3d-origin="372.04724 : 350.78739 : 1">
		</inkscape:perspective>
</defs>
<sodipodi:namedview  id="base" showgrid="false" objecttolerance="10" guidetolerance="10" inkscape:zoom="0.98994949" pagecolor="#ffffff" gridtolerance="10000" borderopacity="1.0" inkscape:cy="62.857143" inkscape:cx="112.80911" bordercolor="#666666" inkscape:window-y="309" inkscape:window-x="1" inkscape:window-height="674" inkscape:window-width="725" inkscape:current-layer="layer1" inkscape:document-units="px" inkscape:pageshadow="2" inkscape:pageopacity="0.0">
	</sodipodi:namedview>
<g id="layer1" inkscape:label="Layer 1" inkscape:groupmode="layer">
	<g id="g6716" transform="matrix(25.897825,0,0,-25.897825,225.38877,256)">
		<path id="path6718" fill="#FAFAFA" d="M0,0c0.652,0,1.182,0.529,1.182,1.182v7.521c0,0.652-0.53,1.182-1.182,1.182h-7.521
			c-0.653,0-1.182-0.53-1.182-1.182V1.182C-8.703,0.529-8.174,0-7.521,0H0z"/>
	</g>
	<g id="g6720" transform="matrix(25.897825,0,0,-25.897825,30.600663,5.1905457)">
		<path id="path6722" fill="#FAFAFA" d="M0,0c-0.541,0-0.981-0.44-0.981-0.981v-7.522c0-0.541,0.44-0.981,0.981-0.981h7.521
			c0.542,0,0.982,0.44,0.982,0.981v7.522C8.503-0.44,8.063,0,7.521,0H0z"/>
	</g>
	<g id="g6724" transform="matrix(25.897825,0,0,-25.897825,225.99727,80.128492)">
		<path id="path6726" fill="#F24E4F" d="M0,0l-0.648-5.102h-2.188L-3.482,0h2.671l0.53,1.846l0.299-0.084l-0.506-1.76L0,0z"/>
	</g>
	<g id="g6728" transform="matrix(25.897825,0,0,-25.897825,127.81861,157.06285)">
		<path id="path6730" fill="#F0EA70" d="M0,0c0,0,0.082,0.742-1.053,0.742h-1.808C-3.994,0.742-3.914,0-3.914,0H0z"/>
	</g>
	<g id="g6732" transform="matrix(25.897825,0,0,-25.897825,26.451831,192.97547)">
		<path id="path6734" fill="#F0EA70" d="M0,0c0,0-0.08-0.744,1.053-0.744h1.808C3.996-0.744,3.914,0,3.914,0H0z"/>
	</g>
	<g id="g6736" transform="matrix(25.897825,0,0,-25.897825,123.41598,183.66737)">
		<path id="path6738" fill="#61BB49" d="M0,0c0.186,0,0.336,0.15,0.336,0.336C0.336,0.52,0.186,0.67,0,0.67h-3.59
			c-0.185,0-0.336-0.15-0.336-0.334C-3.926,0.15-3.775,0-3.59,0H0z"/>
	</g>
</g>
</svg>
