<?xml version="1.0" encoding="iso-8859-1"?>
<!-- Generator: Adobe Illustrator 13.0.2, SVG Export Plug-In . SVG Version: 6.00 Build 14948)  -->
<!DOCTYPE svg PUBLIC "-//W3C//DTD SVG 1.1//EN" "http://www.w3.org/Graphics/SVG/1.1/DTD/svg11.dtd">
<svg version="1.1" id="Layer_1" xmlns="http://www.w3.org/2000/svg" xmlns:xlink="http://www.w3.org/1999/xlink" x="0px" y="0px"
	 width="123.547px" height="123.539px" viewBox="-0.258 -0.548 123.547 123.539"
	 style="enable-background:new -0.258 -0.548 123.547 123.539;" xml:space="preserve">
<g>
	<path style="fill:#231F20;" d="M109.078,123.16c8.156,0,14.766-6.586,14.766-14.742V14.395c0-8.156-6.609-14.758-14.766-14.758
		H15.055c-8.148,0-14.742,6.602-14.742,14.758v94.023c0,8.156,6.594,14.742,14.742,14.742H109.078z"/>
	<path style="fill:#FFFFFF;" d="M15.055,2.137c-6.75,0-12.242,5.5-12.242,12.258v94.023c0,6.766,5.492,12.258,12.242,12.258h94.023
		c6.773,0,12.266-5.492,12.266-12.258V14.395c0-6.758-5.492-12.258-12.266-12.258H15.055z"/>
	<path style="fill:#231F20;" d="M52.312,24.074c3.93,0,7.109-3.172,7.109-7.078c0-3.938-3.18-7.109-7.109-7.109
		c-3.906,0-7.078,3.172-7.078,7.109C45.234,20.902,48.406,24.074,52.312,24.074z"/>
	<path style="fill:#231F20;" d="M105.023,44.504l-7.516-1.438l-4.375,8.695c0.711,0.164,1.445,0.242,2.195,0.242
		C99.992,52.004,103.898,48.832,105.023,44.504z M12.664,59.184c0-5.766,4.664-10.453,10.43-10.453h21.992V32.934
		c0-3.93,3.172-7.102,7.109-7.102c3.93,0,7.102,3.172,7.102,7.102v2.445l10.477,2.68c1.828,0.422,3,2.25,2.586,4.078
		c-0.414,1.859-2.25,3.008-4.102,2.594l-8.961-2.102v6.102h10.547l28.859-29.859l-0.859,7.766l14.211,9.445
		c2.344,1.344,3.195,4.375,1.859,6.719c-1.055,1.875-3.156,2.781-5.133,2.414l-1.148-0.211c-1.367,5.531-6.367,9.609-12.305,9.609
		c-1.172,0-2.312-0.172-3.391-0.461L81.172,76.145v30.172c0,2.586-2.125,4.688-4.711,4.688s-4.688-2.102-4.688-4.688V75.457H48.016
		l-4.25,7.273l8.891,21.195c1.297,2.273,0.484,5.125-1.758,6.398c-2.273,1.289-5.125,0.484-6.422-1.758L34.102,84.098v-7.789
		l-4.641,7.305v22.703c0,2.586-2.102,4.688-4.688,4.688s-4.711-2.102-4.711-4.688V80.098l3.883-6.078V53.457l-3.859,5.906V76.48
		h-7.422V59.184z"/>
</g>
</svg>
