<?xml version="1.0" encoding="utf-8"?>
<!-- Generator: Adobe Illustrator 13.0.0, SVG Export Plug-In . SVG Version: 6.00 Build 14948)  -->
<!DOCTYPE svg PUBLIC "-//W3C//DTD SVG 1.1//EN" "http://www.w3.org/Graphics/SVG/1.1/DTD/svg11.dtd">
<svg version="1.1" id="Layer_1" xmlns="http://www.w3.org/2000/svg" xmlns:xlink="http://www.w3.org/1999/xlink" x="0px" y="0px"
	 width="123.516px" height="123.508px" viewBox="0 0 123.516 123.508" enable-background="new 0 0 123.516 123.508"
	 xml:space="preserve">
<g>
	<path fill="#FAFAFA" d="M108.758,123.508c8.146,0,14.758-6.602,14.758-14.758V14.758c0-8.156-6.61-14.758-14.758-14.758h-94
		C6.609,0,0,6.602,0,14.758v93.992c0,8.156,6.606,14.758,14.758,14.758H108.758z"/>
	<path fill="#2458BF" d="M113.172,101.719c-2.242,0-4.406-0.5-6.32-1.367c-1.992-0.914-4.211-1.453-6.547-1.453
		c-2.312,0-4.547,0.539-6.516,1.453c-1.938,0.867-4.086,1.367-6.347,1.367c-2.25,0-4.413-0.5-6.352-1.367
		c-1.978-0.914-4.195-1.453-6.516-1.453c-2.337,0-4.558,0.539-6.55,1.453c-1.912,0.867-4.086,1.367-6.336,1.367
		c-2.239,0-4.414-0.5-6.336-1.367c-1.981-0.914-4.211-1.453-6.528-1.453c-2.328,0-4.563,0.539-6.531,1.453
		c-1.922,0.867-4.086,1.367-6.328,1.367c-2.266,0-4.422-0.5-6.367-1.367c-1.961-0.914-4.193-1.453-6.516-1.453
		c-2.323,0-4.558,0.539-6.531,1.453c-1.93,0.867-4.086,1.367-6.336,1.367v-9.5c2.25,0,4.406-0.508,6.336-1.375
		c1.979-0.914,4.211-1.453,6.531-1.453c2.317,0,4.555,0.539,6.516,1.453c1.945,0.867,4.104,1.375,6.367,1.375
		c2.242,0,4.406-0.508,6.328-1.375c1.969-0.914,4.203-1.453,6.531-1.453c2.317,0,4.547,0.539,6.528,1.453
		c1.922,0.867,4.097,1.375,6.336,1.375c2.25,0,4.424-0.508,6.336-1.375c1.992-0.914,4.213-1.453,6.55-1.453
		c2.317,0,4.538,0.539,6.516,1.453c1.938,0.867,4.102,1.375,6.352,1.375c2.261,0,4.406-0.508,6.347-1.375
		c1.969-0.914,4.203-1.453,6.516-1.453c2.336,0,4.555,0.539,6.547,1.453c1.914,0.867,4.078,1.375,6.32,1.375V101.719z"/>
	<path fill="#F24E4F" d="M10.258,60.898l-0.039,22.438c2.25,0,4.406-0.5,6.336-1.367c1.979-0.914,4.211-1.453,6.531-1.453
		c2.318,0,4.555,0.539,6.516,1.453c1.945,0.867,4.104,1.367,6.367,1.367c2.242,0,4.406-0.5,6.328-1.367
		c1.969-0.914,4.203-1.453,6.531-1.453c2.317,0,4.547,0.539,6.528,1.453c1.923,0.867,4.097,1.367,6.336,1.367
		c2.25,0,4.425-0.5,6.337-1.367c1.991-0.914,4.213-1.453,6.549-1.453c2.317,0,4.539,0.539,6.516,1.453
		c1.938,0.867,4.102,1.367,6.352,1.367c0.636,0,1.242-0.133,1.867-0.211c1.133-0.242,2.281-0.352,3.375-0.789
		c0.031-0.016,0.058-0.023,0.078-0.039c8.18-3.32,15.234-11.539,19.644-17.664l2.188-3.734L10.258,60.898L10.258,60.898z"/>
	<path fill="#F2EA72" d="M68.5,36.789h15.086l0.133-0.016h0.094c0.172,0,4.144-0.156,5.479,2.812L95.05,53.28
		c-2.773,0-9.578,0-19.625,0L68.5,36.789z M27.609,51.398c0,1.039-0.852,1.883-1.875,1.883h-8.422c-1.028,0-1.875-0.844-1.875-1.883
		V38.656c0-1.023,0.847-1.867,1.875-1.867h8.422c1.023,0,1.875,0.844,1.875,1.867V51.398L27.609,51.398z M62.328,51.398
		c0,1.039-0.836,1.883-1.867,1.883h-8.422c-1.039,0-1.875-0.844-1.875-1.883V38.656c0-1.023,0.836-1.867,1.875-1.867h8.422
		c1.031,0,1.867,0.844,1.867,1.867V51.398z M44.938,51.398c0,1.039-0.852,1.883-1.883,1.883h-8.367
		c-1.028,0-1.875-0.844-1.875-1.883V38.656c0-1.023,0.847-1.867,1.875-1.867h8.367c1.031,0,1.883,0.844,1.883,1.867V51.398z
		 M91.859,35.641c-2.508-5.562-9.271-5.102-9.271-5.102H10.211l-0.019,26.648h90.742L91.859,35.641z"/>
</g>
</svg>
